<svg width="11" height="11" viewBox="0 0 11 11" fill="none" xmlns="http://www.w3.org/2000/svg">
<g clip-path="url(#clip0_24_40)">
<path d="M9.62502 5.86208C9.55292 6.64226 9.26012 7.38577 8.78088 8.00561C8.30164 8.62545 7.65578 9.09599 6.91888 9.36216C6.18198 9.62834 5.38451 9.67914 4.61979 9.50863C3.85507 9.33811 3.15472 8.95333 2.6007 8.39931C2.04668 7.84529 1.6619 7.14495 1.49139 6.38023C1.32088 5.61551 1.37168 4.81804 1.63785 4.08114C1.90403 3.34423 2.37456 2.69838 2.99441 2.21914C3.61425 1.7399 4.35776 1.4471 5.13793 1.375C4.68116 1.99296 4.46136 2.75433 4.51851 3.52065C4.57566 4.28697 4.90595 5.00732 5.44933 5.55069C5.9927 6.09406 6.71305 6.42436 7.47937 6.48151C8.24569 6.53865 9.00706 6.31885 9.62502 5.86208Z" stroke="#5E5D67" stroke-width="0.89" stroke-linecap="round" stroke-linejoin="round"/>
</g>
<defs>
<clipPath id="clip0_24_40">
<rect width="11" height="11" fill="white"/>
</clipPath>
</defs>
</svg>
